<svg width="200" height="64" viewBox="0 0 200 64" fill="none" xmlns="http://www.w3.org/2000/svg">
<path d="M143.211 20.2336V63.4885H130.733C132.866 48.2259 132.866 33.8073 130.733 20.2336H143.211Z" fill="#7CA391"/>
<path d="M49.4505 63.4885L59.5423 20.2336H76.7247L86.8166 63.4885H73.6218L68.133 23.1642C62.1492 35.1615 59.1093 51.9574 62.6441 63.4885H49.4493H49.4482H49.4505Z" fill="#7CA391"/>
<path d="M22.9651 37.5304C26.2161 30.1781 29.235 20.2166 38.8176 20.2166H46.1534V63.4858H32.3412L39.2473 22.5694C29.657 25.8104 30.7516 63.4858 23.0171 63.4858C15.2814 63.4858 16.0833 25.8037 6.90611 22.5241L13.8122 63.4858H0V20.2166H7.61418C16.9759 20.2166 19.7231 30.3338 22.9651 37.5304Z" fill="#7CA391"/>
<path d="M90.0349 63.4821V20.2526L108.974 20.2515C108.974 20.2515 121.675 19.5765 121.675 29.1801C121.675 33.5556 116.846 35.3428 109.812 38.6998C125.233 44.1346 127.106 63.4809 127.106 63.4809L111.604 63.4821C114.482 47.8218 105.176 45.2005 105.176 45.2005C102.982 44.6095 102.504 42.2158 103.888 40.5788C106.604 37.0981 112.992 34.3089 112.992 31.8931C112.992 29.1768 109.046 26.8693 105.372 26.8693L102.177 26.8682V63.4787H90.0327V63.4832L90.0349 63.4821Z" fill="#7CA391"/>
<path d="M148.326 63.4825V20.2531L160.47 20.252C160.47 34.6607 160.47 49.0694 160.47 63.4781H148.326V63.4825ZM176.657 20.7888C178.413 19.5527 181.892 29.0437 178.552 32.7397C176.628 34.8683 172.873 36.4237 168.103 38.6992C183.523 44.1339 185.397 63.4803 185.397 63.4803L169.895 63.4814C172.773 47.8212 163.467 45.1999 163.467 45.1999C161.273 44.61 160.795 42.2152 162.179 40.5781C164.895 37.0975 171.283 34.3083 171.283 31.8925C171.283 30.0389 169.444 28.3743 167.108 27.5049L176.655 20.7877L176.657 20.7888Z" fill="#7CA391"/>
<path d="M154.556 12.184C154.27 12.6292 154.154 13.0357 154.208 13.4024C154.261 13.7691 154.287 13.9525 154.287 13.9525L153.799 13.6399L153.204 14.5678L156.897 16.9361L157.493 16.0082L155.469 14.7114C155.238 14.5634 155.078 14.3215 154.988 13.9845C154.897 13.6454 154.941 13.3372 155.12 13.0578C155.299 12.7783 155.562 12.6082 155.908 12.5496C156.251 12.4911 156.538 12.5364 156.769 12.6844L158.793 13.9812L159.388 13.0534L157.061 11.561C156.701 11.3301 156.263 11.2683 155.749 11.3732C155.234 11.4782 154.836 11.7488 154.556 12.1862V12.184ZM162.661 9.96261L163.495 9.24019L160.622 5.9241L159.788 6.64653L160.208 7.13146C159.787 7.06518 159.431 7.095 159.143 7.21983C158.854 7.34465 158.609 7.49267 158.409 7.6661C158 8.02068 157.767 8.51555 157.706 9.15403C157.645 9.79029 157.832 10.3603 158.266 10.8607C158.699 11.3611 159.236 11.6262 159.876 11.6582C160.516 11.6891 161.04 11.5356 161.446 11.1965C161.661 11.0242 161.847 10.7889 162.006 10.4906C162.165 10.1902 162.25 9.85988 162.262 9.50088L162.661 9.96261ZM159.119 10.1603C158.865 9.86651 158.752 9.52628 158.781 9.13856C158.811 8.75084 158.97 8.4316 159.26 8.17975C159.551 7.92789 159.89 7.81522 160.278 7.84173C160.664 7.86824 160.986 8.02841 161.241 8.32224C161.502 8.62381 161.618 8.96845 161.589 9.35507C161.559 9.74279 161.4 10.062 161.109 10.3139C160.819 10.5657 160.48 10.6784 160.092 10.6519C159.705 10.6254 159.381 10.4619 159.119 10.1603ZM165.114 8.36753L163.005 4.70018L162.049 5.25028L164.158 8.91763L165.114 8.36753ZM162.541 3.8927L162.069 3.07196L161.114 3.62206L161.586 4.4428L162.541 3.8927ZM164.196 2.00379L163.191 2.45779L165.707 8.02289L166.712 7.56889L164.196 2.00379ZM171.433 5.49772C171.688 5.75399 171.977 5.92521 172.3 6.01358C172.624 6.10195 172.922 6.12956 173.196 6.09863C173.723 6.04892 174.204 5.78492 174.637 5.30772C175.07 4.83052 175.262 4.26275 175.211 3.60218C175.16 2.94162 174.887 2.40808 174.393 2.00268C173.897 1.59618 173.381 1.41281 172.843 1.45369C172.578 1.47357 172.301 1.55089 172.01 1.68566C171.719 1.82042 171.449 2.06013 171.199 2.40587L171.016 0L169.917 0.0839515L170.381 6.17375L171.48 6.0898L171.434 5.49551L171.433 5.49772ZM172.818 5.30109C172.434 5.33092 172.094 5.21493 171.801 4.95756C171.508 4.69907 171.347 4.36548 171.316 3.96008C171.286 3.56352 171.396 3.21556 171.645 2.9151C171.896 2.61465 172.214 2.45116 172.599 2.42134C172.994 2.39151 173.339 2.50529 173.631 2.76377C173.924 3.02225 174.085 3.35033 174.115 3.74689C174.146 4.15228 174.037 4.50576 173.787 4.80622C173.536 5.10447 173.214 5.27127 172.818 5.30109ZM179.593 6.50293L180.679 6.69734L181.45 2.37826L180.364 2.18384L180.251 2.81569C180.038 2.44674 179.791 2.18937 179.512 2.04245C179.233 1.89554 178.965 1.79943 178.704 1.75193C178.171 1.65694 177.64 1.78728 177.104 2.14187C176.571 2.49535 176.246 2.99906 176.129 3.65078C176.013 4.30251 176.144 4.88575 176.521 5.40382C176.9 5.92189 177.35 6.23229 177.869 6.33392C178.137 6.39246 178.438 6.38915 178.769 6.32508C179.103 6.25991 179.412 6.11852 179.699 5.9009L179.592 6.50293H179.593ZM177.21 3.87281C177.279 3.49061 177.473 3.18905 177.791 2.96813C178.112 2.7472 178.46 2.67098 178.839 2.73836C179.218 2.80575 179.518 2.99906 179.741 3.31719C179.964 3.63532 180.042 3.98549 179.973 4.36769C179.903 4.75983 179.708 5.06691 179.389 5.28784C179.068 5.50876 178.72 5.58498 178.342 5.5176C177.963 5.45022 177.662 5.25691 177.439 4.93878C177.216 4.62064 177.14 4.26606 177.209 3.87281H177.21ZM183.885 4.1092L184.143 3.53811L183.138 3.08411L181.331 7.08175L182.336 7.53575L183.375 5.23703C183.41 5.16191 183.513 5.04151 183.689 4.87581C183.866 4.71012 184.1 4.61402 184.389 4.58861C184.635 4.56541 184.853 4.60518 185.047 4.71012C185.24 4.81285 185.337 4.86587 185.337 4.86587L185.671 4.12798C185.671 4.12798 185.585 4.07165 185.411 3.96118C185.238 3.84851 185.001 3.80322 184.701 3.82311C184.469 3.84188 184.284 3.88717 184.146 3.95897C184.008 4.03078 183.921 4.08159 183.886 4.11031L183.885 4.1092ZM189.475 12.8523L190.236 13.6498L193.412 10.6221L192.651 9.82453L192.187 10.2675C192.233 9.84331 192.186 9.48983 192.048 9.20705C191.909 8.92316 191.749 8.68677 191.567 8.49456C191.194 8.10353 190.688 7.89365 190.047 7.86382C189.409 7.834 188.848 8.04719 188.369 8.50451C187.89 8.96182 187.651 9.50971 187.65 10.1504C187.65 10.7922 187.828 11.308 188.187 11.6969C188.369 11.9034 188.613 12.078 188.918 12.2227C189.225 12.3674 189.559 12.4359 189.919 12.4303L189.476 12.8523H189.475ZM189.108 9.32303C189.39 9.05461 189.725 8.92647 190.112 8.93641C190.501 8.94746 190.828 9.09217 191.093 9.37053C191.358 9.6489 191.488 9.98249 191.48 10.3713C191.471 10.759 191.328 11.0882 191.046 11.3555C190.758 11.6306 190.418 11.7631 190.031 11.7532C189.642 11.7422 189.315 11.5975 189.05 11.3191C188.785 11.0407 188.655 10.7082 188.663 10.3194C188.672 9.93168 188.82 9.59919 189.108 9.32414V9.32303ZM195.96 14.6065C195.72 14.1359 195.427 13.831 195.082 13.6929C194.739 13.5537 194.567 13.4853 194.567 13.4853L195.083 13.2213L194.581 12.2403L190.676 14.2397L191.178 15.2217L193.318 14.1259C193.562 14.0011 193.852 13.9845 194.188 14.0751C194.527 14.1668 194.772 14.3612 194.923 14.6573C195.074 14.9533 195.089 15.2648 194.966 15.5929C194.844 15.9198 194.66 16.1452 194.416 16.27L192.276 17.3658L192.779 18.3478L195.24 17.0874C195.621 16.893 195.894 16.5462 196.063 16.048C196.231 15.5498 196.198 15.0704 195.961 14.6076L195.96 14.6065ZM193.793 22.7453L193.987 23.8312L200 22.7575L199.806 21.6716L197.476 22.0881C197.749 21.76 197.906 21.4397 197.949 21.1271C197.991 20.8133 197.988 20.5283 197.942 20.2677C197.847 19.7352 197.541 19.2812 197.023 18.9023C196.507 18.5246 195.922 18.3931 195.27 18.5102C194.618 18.6262 194.117 18.952 193.761 19.4856C193.406 20.0202 193.271 20.5493 193.355 21.0718C193.392 21.3447 193.499 21.6241 193.675 21.9135C193.852 22.2041 194.091 22.446 194.395 22.6393L193.793 22.7464V22.7453ZM195.404 19.606C195.795 19.5364 196.153 19.6126 196.477 19.8335C196.802 20.0567 196.998 20.356 197.065 20.7349C197.132 21.1138 197.053 21.4629 196.826 21.7843C196.599 22.1046 196.289 22.3002 195.898 22.3698C195.499 22.4416 195.135 22.3653 194.81 22.1444C194.488 21.9213 194.29 21.6219 194.223 21.243C194.155 20.8641 194.236 20.5151 194.461 20.1936C194.689 19.8733 195.004 19.6767 195.404 19.606ZM197.009 33.7982C197.131 33.3674 197.117 33.0161 196.966 32.7455C196.814 32.4749 196.739 32.3401 196.739 32.3401C196.739 32.3401 196.875 32.2617 197.147 32.1081C197.418 31.9524 197.607 31.6873 197.713 31.315C197.833 30.8941 197.824 30.544 197.687 30.2678C197.55 29.9906 197.482 29.8525 197.482 29.8525L197.938 29.9817L198.239 28.9213L194.018 27.7228L193.717 28.7832L196.401 29.5454C196.566 29.5918 196.714 29.7155 196.844 29.9166C196.975 30.1176 197.003 30.3507 196.928 30.6136C196.851 30.8875 196.704 31.0753 196.486 31.178C196.269 31.2808 196.079 31.3073 195.914 31.2609L193.23 30.4987L192.962 31.4387L195.647 32.2009C195.782 32.2396 195.925 32.3534 196.074 32.5411C196.225 32.73 196.261 32.9642 196.181 33.2437C196.12 33.4569 195.992 33.6237 195.797 33.7441C195.6 33.8645 195.395 33.8943 195.183 33.8347L192.498 33.0725L192.197 34.1329L195.062 34.9459C195.463 35.0597 195.856 35.0078 196.242 34.789C196.628 34.5692 196.882 34.2401 197.006 33.7993L197.009 33.7982ZM193.465 35.9379C192.934 35.5601 192.348 35.4231 191.71 35.5325C191.07 35.6396 190.565 35.9544 190.193 36.4769C189.815 37.0082 189.681 37.5937 189.789 38.2333C189.896 38.8717 190.217 39.381 190.749 39.7588C191.271 40.1299 191.853 40.2625 192.492 40.1553C193.131 40.0471 193.641 39.7278 194.018 39.1965C194.39 38.674 194.522 38.093 194.413 37.4534C194.306 36.8138 193.989 36.309 193.466 35.9379H193.465ZM193.246 38.6486C193.022 38.9645 192.718 39.1578 192.334 39.2274C191.949 39.2981 191.601 39.2208 191.289 38.9988C190.976 38.7767 190.787 38.4708 190.723 38.0819C190.659 37.6931 190.74 37.3407 190.964 37.0248C191.183 36.7177 191.485 36.5299 191.873 36.4637C192.262 36.3963 192.613 36.4736 192.926 36.6956C193.239 36.9177 193.424 37.2225 193.484 37.6092C193.544 37.9947 193.464 38.3404 193.246 38.6475V38.6486ZM190.138 42.4099L190.549 42.8837L191.383 42.1613L188.51 38.8452L187.676 39.5677L189.327 41.4742C189.381 41.5361 189.446 41.6819 189.524 41.9106C189.6 42.1403 189.59 42.3933 189.491 42.6672C189.409 42.9003 189.281 43.0815 189.105 43.2129C188.93 43.3455 188.842 43.4117 188.842 43.4117L189.372 44.0237C189.372 44.0237 189.46 43.9685 189.633 43.858C189.809 43.7476 189.948 43.552 190.056 43.2715C190.137 43.0539 190.173 42.8672 190.165 42.7114C190.158 42.5557 190.149 42.4551 190.138 42.411V42.4099ZM186.644 43.8569C186.666 44.1198 186.619 44.3794 186.501 44.6368C186.385 44.8942 186.19 45.1018 185.916 45.2587C185.661 45.4056 185.385 45.4774 185.087 45.473C184.791 45.4686 184.542 45.3714 184.34 45.1814L186.644 43.8569ZM183.007 44.8566C183.384 45.695 183.924 46.1766 184.629 46.2992C185.334 46.4219 185.92 46.3478 186.388 46.0794C186.952 45.7547 187.32 45.2786 187.488 44.6533C187.658 44.0281 187.582 43.4361 187.261 42.8793C186.937 42.3149 186.461 41.9459 185.834 41.778C185.209 41.6079 184.614 41.6863 184.048 42.0111C183.58 42.2795 183.256 42.6319 183.076 43.0649C182.897 43.499 182.85 43.9619 182.933 44.4567L183.82 43.9464C183.82 43.8028 183.874 43.6172 183.977 43.3908C184.082 43.1654 184.263 42.9787 184.519 42.8318C184.846 42.644 185.162 42.5767 185.469 42.6297C185.776 42.6827 186.028 42.8086 186.222 43.0064L183.005 44.8566H183.007Z" fill="#E0C994"/>
</svg>
