<svg width="140" height="41" viewBox="0 0 140 41" fill="none" xmlns="http://www.w3.org/2000/svg">
<g clip-path="url(#clip0_680_1777)">
<path d="M22.5806 0.03125H18.0645V40.9944H22.5806V0.03125Z" fill="black"/>
<path d="M31.6128 0.03125H27.0967V40.9996H31.6128V0.03125Z" fill="black"/>
<path d="M18.0645 18.2671L18.0645 22.7832L31.6128 22.7832L31.6128 18.2671L18.0645 18.2671Z" fill="black"/>
<path d="M40.6451 0.03125H36.1289V40.9996H40.6451V0.03125Z" fill="black"/>
<path d="M4.51614 0.03125H0V40.9944H4.51614V0.03125Z" fill="black"/>
<path d="M13.5484 0.03125H9.03223V13.6865H13.5484V0.03125Z" fill="black"/>
<path d="M0 36.478L0 40.9941L13.5483 40.9941L13.5483 36.478L0 36.478Z" fill="black"/>
<path d="M0 0.030745L0 4.54688L13.5483 4.54688L13.5483 0.030745L0 0.030745Z" fill="black"/>
<path d="M13.5484 27.3398H9.03223V40.9951H13.5484V27.3398Z" fill="black"/>
<path d="M13.5484 18.3066H9.03223V22.8027H13.5484V18.3066Z" fill="#EB3305"/>
<path d="M67.7417 18.3066H63.2256V22.8027H67.7417V18.3066Z" fill="black"/>
<path d="M49.6773 0.03125H45.1611V40.9944H49.6773V0.03125Z" fill="black"/>
<path d="M58.7095 0.03125H54.1934V13.6865H58.7095V0.03125Z" fill="black"/>
<path d="M45.1611 36.478L45.1611 40.9941L58.7095 40.9941L58.7095 36.478L45.1611 36.478Z" fill="black"/>
<path d="M45.1611 0.030745L45.1611 4.54688L58.7095 4.54688L58.7095 0.030745L45.1611 0.030745Z" fill="black"/>
<path d="M58.7095 27.3398H54.1934V40.9951H58.7095V27.3398Z" fill="black"/>
<path d="M58.7095 18.3066H54.1934V22.8027H58.7095V18.3066Z" fill="#EB3305"/>
<path d="M94.8389 0.03125H90.3228V40.9944H94.8389V0.03125Z" fill="black"/>
<path d="M103.871 0.03125H99.355V40.9996H103.871V0.03125Z" fill="black"/>
<path d="M90.3228 18.2671L90.3228 22.7832L103.871 22.7832L103.871 18.2671L90.3228 18.2671Z" fill="black"/>
<path d="M76.774 0.03125H72.2578V40.9944H76.774V0.03125Z" fill="black"/>
<path d="M85.8067 0.03125H81.2905V13.6865H85.8067V0.03125Z" fill="black"/>
<path d="M72.2578 36.478L72.2578 40.9941L85.8061 40.9941L85.8061 36.478L72.2578 36.478Z" fill="black"/>
<path d="M72.2578 0.030745L72.2578 4.54688L85.8061 4.54688L85.8061 0.030745L72.2578 0.030745Z" fill="black"/>
<path d="M85.8067 27.3398H81.2905V40.9951H85.8067V27.3398Z" fill="black"/>
<path d="M85.8067 18.3066H81.2905V22.8027H85.8067V18.3066Z" fill="#EB3305"/>
<path d="M130.968 0.03125H126.452V40.9944H130.968V0.03125Z" fill="black"/>
<path d="M140 0.03125H135.484V13.6865H140V0.03125Z" fill="black"/>
<path d="M126.451 36.478L126.451 40.9941L140 40.9941L140 36.478L126.451 36.478Z" fill="black"/>
<path d="M126.451 0.030745L126.451 4.54688L140 4.54688L140 0.030745L126.451 0.030745Z" fill="black"/>
<path d="M140 27.3398H135.484V40.9951H140V27.3398Z" fill="black"/>
<path d="M140 18.3066H135.484V22.8027H140V18.3066Z" fill="#EB3305"/>
<path d="M112.903 0.03125H108.387V40.9944H112.903V0.03125Z" fill="black"/>
<path d="M121.936 0.03125H117.419V40.9996H121.936V0.03125Z" fill="black"/>
<path d="M108.388 0.030745L108.388 4.54688L121.936 4.54688L121.936 0.030745L108.388 0.030745Z" fill="black"/>
<path d="M108.388 36.4839L108.388 41L121.936 41L121.936 36.4839L108.388 36.4839Z" fill="black"/>
</g>
<defs>
<clipPath id="clip0_680_1777">
<rect width="140" height="40.9684" fill="white" transform="translate(0 0.03125)"/>
</clipPath>
</defs>
</svg>
