<svg width="150" height="44" viewBox="0 0 150 44" fill="none" xmlns="http://www.w3.org/2000/svg">
<path d="M24.1937 0.105225H19.355V43.9944H24.1937V0.105225Z" fill="black"/>
<path d="M33.871 0.105225H29.0322V43.9999H33.871V0.105225Z" fill="black"/>
<path d="M19.355 19.6425L19.355 24.4812L33.871 24.4812L33.871 19.6425L19.355 19.6425Z" fill="black"/>
<path d="M43.5482 0.105225H38.7095V43.9999H43.5482V0.105225Z" fill="black"/>
<path d="M4.83873 0.105225H0V43.9944H4.83873V0.105225Z" fill="black"/>
<path d="M14.516 0.105225H9.67725V14.7359H14.516V0.105225Z" fill="black"/>
<path d="M0 39.1557L0 43.9944L14.5161 43.9944L14.5161 39.1557L0 39.1557Z" fill="black"/>
<path d="M0 0.105137L0 4.94385L14.5161 4.94385L14.5161 0.105137L0 0.105137Z" fill="black"/>
<path d="M14.516 29.3638H9.67725V43.9944H14.516V29.3638Z" fill="black"/>
<path d="M14.516 19.6851H9.67725V24.5022H14.516V19.6851Z" fill="#EB3305"/>
<path d="M72.5804 19.6851H67.7417V24.5022H72.5804V19.6851Z" fill="black"/>
<path d="M53.2259 0.105225H48.3872V43.9944H53.2259V0.105225Z" fill="black"/>
<path d="M62.9032 0.105225H58.0645V14.7359H62.9032V0.105225Z" fill="black"/>
<path d="M48.3872 39.1557L48.3872 43.9944L62.9033 43.9944L62.9033 39.1557L48.3872 39.1557Z" fill="black"/>
<path d="M48.3872 0.105137L48.3872 4.94385L62.9033 4.94385L62.9033 0.105137L48.3872 0.105137Z" fill="black"/>
<path d="M62.9032 29.3638H58.0645V43.9944H62.9032V29.3638Z" fill="black"/>
<path d="M62.9032 19.6851H58.0645V24.5022H62.9032V19.6851Z" fill="#EB3305"/>
<path d="M101.613 0.105225H96.7739V43.9944H101.613V0.105225Z" fill="black"/>
<path d="M111.29 0.105225H106.452V43.9999H111.29V0.105225Z" fill="black"/>
<path d="M96.7739 19.6425L96.7739 24.4812L111.29 24.4812L111.29 19.6425L96.7739 19.6425Z" fill="black"/>
<path d="M82.2582 0.105225H77.4194V43.9944H82.2582V0.105225Z" fill="black"/>
<path d="M91.9354 0.105225H87.0967V14.7359H91.9354V0.105225Z" fill="black"/>
<path d="M77.4194 39.1557L77.4194 43.9944L91.9355 43.9944L91.9355 39.1557L77.4194 39.1557Z" fill="black"/>
<path d="M77.4194 0.105137L77.4194 4.94385L91.9355 4.94385L91.9355 0.105137L77.4194 0.105137Z" fill="black"/>
<path d="M91.9354 29.3638H87.0967V43.9944H91.9354V29.3638Z" fill="black"/>
<path d="M91.9354 19.6851H87.0967V24.5022H91.9354V19.6851Z" fill="#EB3305"/>
<path d="M140.323 0.105225H135.484V43.9944H140.323V0.105225Z" fill="black"/>
<path d="M150 0.105225H145.161V14.7359H150V0.105225Z" fill="black"/>
<path d="M135.483 39.1557L135.483 43.9944L149.999 43.9944L149.999 39.1557L135.483 39.1557Z" fill="black"/>
<path d="M135.483 0.105137L135.483 4.94385L149.999 4.94385L149.999 0.105137L135.483 0.105137Z" fill="black"/>
<path d="M150 29.3638H145.161V43.9944H150V29.3638Z" fill="black"/>
<path d="M150 19.6851H145.161V24.5022H150V19.6851Z" fill="#EB3305"/>
<path d="M120.968 0.105225H116.129V43.9944H120.968V0.105225Z" fill="black"/>
<path d="M130.645 0.105225H125.807V43.9999H130.645V0.105225Z" fill="black"/>
<path d="M116.129 0.105137L116.129 4.94385L130.645 4.94385L130.645 0.105137L116.129 0.105137Z" fill="black"/>
<path d="M116.129 39.1613L116.129 44L130.645 44L130.645 39.1613L116.129 39.1613Z" fill="black"/>
</svg>
