<svg width="20" height="21" viewBox="0 0 20 21" fill="none" xmlns="http://www.w3.org/2000/svg">
<g clip-path="url(#clip0_310_3731)">
<path d="M10.0006 0.77478C7.28485 0.77478 6.94403 0.786655 5.87738 0.835196C4.81282 0.883945 4.08617 1.05248 3.45035 1.29977C2.79265 1.55518 2.23475 1.89684 1.67893 2.45287C1.12269 3.0087 0.781026 3.5666 0.524781 4.22409C0.276869 4.86012 0.108123 5.58698 0.060207 6.65113C0.0124997 7.71777 0 8.05881 0 10.7746C0 13.4904 0.0120833 13.8302 0.0604157 14.8968C0.109373 15.9614 0.277911 16.688 0.52499 17.3238C0.78061 17.9815 1.12227 18.5394 1.6783 19.0953C2.23391 19.6515 2.79182 19.994 3.4491 20.2494C4.08534 20.4967 4.8122 20.6652 5.87655 20.714C6.9432 20.7625 7.28381 20.7744 9.99938 20.7744C12.7154 20.7744 13.0552 20.7625 14.1218 20.714C15.1864 20.6652 15.9139 20.4967 16.5501 20.2494C17.2076 19.994 17.7646 19.6515 18.3203 19.0953C18.8765 18.5394 19.2182 17.9815 19.4744 17.324C19.7202 16.688 19.889 15.9612 19.939 14.897C19.9869 13.8304 19.9994 13.4904 19.9994 10.7746C19.9994 8.05881 19.9869 7.71798 19.939 6.65133C19.889 5.58677 19.7202 4.86012 19.4744 4.2243C19.2182 3.5666 18.8765 3.0087 18.3203 2.45287C17.764 1.89663 17.2078 1.55497 16.5495 1.29977C15.912 1.05248 15.1849 0.883945 14.1203 0.835196C13.0537 0.786655 12.7141 0.77478 9.99751 0.77478H10.0006ZM9.10357 2.57683C9.36981 2.57641 9.66689 2.57683 10.0006 2.57683C12.6706 2.57683 12.987 2.58641 14.0414 2.63433C15.0164 2.67891 15.5455 2.84182 15.898 2.9787C16.3647 3.15994 16.6974 3.3766 17.0472 3.7266C17.3972 4.07659 17.6138 4.40992 17.7955 4.87658C17.9324 5.22865 18.0955 5.75781 18.1398 6.73279C18.1878 7.78694 18.1982 8.1036 18.1982 10.7723C18.1982 13.441 18.1878 13.7577 18.1398 14.8118C18.0953 15.7868 17.9324 16.3159 17.7955 16.668C17.6142 17.1347 17.3972 17.467 17.0472 17.8167C16.6972 18.1667 16.3649 18.3834 15.898 18.5646C15.5459 18.7021 15.0164 18.8646 14.0414 18.9092C12.9872 18.9571 12.6706 18.9676 10.0006 18.9676C7.33048 18.9676 7.01403 18.9571 5.95988 18.9092C4.9849 18.8642 4.45574 18.7013 4.10304 18.5644C3.63639 18.3832 3.30306 18.1665 2.95307 17.8165C2.60307 17.4665 2.38641 17.134 2.20475 16.6672C2.06788 16.3151 1.90475 15.7859 1.86038 14.811C1.81246 13.7568 1.80288 13.4402 1.80288 10.7698C1.80288 8.09943 1.81246 7.78444 1.86038 6.73029C1.90496 5.75531 2.06788 5.22615 2.20475 4.87366C2.38599 4.407 2.60307 4.07367 2.95307 3.72368C3.30306 3.37369 3.63639 3.15703 4.10304 2.97536C4.45554 2.83787 4.9849 2.67537 5.95988 2.63058C6.88236 2.58891 7.23986 2.57641 9.10357 2.57433V2.57683ZM15.3384 4.23721C14.676 4.23721 14.1385 4.77408 14.1385 5.43677C14.1385 6.09926 14.676 6.63675 15.3384 6.63675C16.0009 6.63675 16.5384 6.09926 16.5384 5.43677C16.5384 4.77429 16.0009 4.2368 15.3384 4.2368V4.23721ZM10.0006 5.63927C7.16465 5.63927 4.86532 7.9386 4.86532 10.7746C4.86532 13.6106 7.16465 15.9089 10.0006 15.9089C12.8366 15.9089 15.1351 13.6106 15.1351 10.7746C15.1351 7.9386 12.8366 5.63927 10.0006 5.63927ZM10.0006 7.44132C11.8414 7.44132 13.3339 8.93358 13.3339 10.7746C13.3339 12.6154 11.8414 14.1079 10.0006 14.1079C8.15963 14.1079 6.66737 12.6154 6.66737 10.7746C6.66737 8.93358 8.15963 7.44132 10.0006 7.44132Z" fill="white"/>
</g>
<defs>
<clipPath id="clip0_310_3731">
<rect width="20" height="19.9994" fill="white" transform="translate(0 0.774902)"/>
</clipPath>
</defs>
</svg>
