<svg width="182" height="54" viewBox="0 0 182 54" fill="none" xmlns="http://www.w3.org/2000/svg">
<path d="M29.3549 0H23.4839V53.2521H29.3549V0Z" fill="white"/>
<path d="M41.0971 0H35.2261V53.2589H41.0971V0Z" fill="white"/>
<path d="M23.4839 23.7052L23.4839 29.5762L41.0967 29.5762L41.0967 23.7052L23.4839 23.7052Z" fill="white"/>
<path d="M52.8388 0H46.9678V53.2589H52.8388V0Z" fill="white"/>
<path d="M5.87099 0H0V53.2521H5.87099V0Z" fill="white"/>
<path d="M17.6127 0H11.7417V17.7519H17.6127V0Z" fill="white"/>
<path d="M0 47.381L0 53.252L17.6128 53.252L17.6128 47.381L0 47.381Z" fill="white"/>
<path d="M0 0.000125408L0 5.87109L17.6128 5.87109L17.6128 0.000125408L0 0.000125408Z" fill="white"/>
<path d="M17.6127 35.5005H11.7417V53.2524H17.6127V35.5005Z" fill="white"/>
<path d="M17.6127 23.7568H11.7417V29.6016H17.6127V23.7568Z" fill="#EB3305"/>
<path d="M88.0644 23.7568H82.1934V29.6016H88.0644V23.7568Z" fill="white"/>
<path d="M64.5805 0H58.7095V53.2521H64.5805V0Z" fill="white"/>
<path d="M76.3227 0H70.4517V17.7519H76.3227V0Z" fill="white"/>
<path d="M58.7095 47.381L58.7095 53.252L76.3223 53.252L76.3223 47.381L58.7095 47.381Z" fill="white"/>
<path d="M58.7095 0.000125408L58.7095 5.87109L76.3223 5.87109L76.3223 0.000125408L58.7095 0.000125408Z" fill="white"/>
<path d="M76.3227 35.5005H70.4517V53.2524H76.3227V35.5005Z" fill="white"/>
<path d="M76.3227 23.7568H70.4517V29.6016H76.3227V23.7568Z" fill="#EB3305"/>
<path d="M123.29 0H117.419V53.2521H123.29V0Z" fill="white"/>
<path d="M135.032 0H129.161V53.2589H135.032V0Z" fill="white"/>
<path d="M117.419 23.7052L117.419 29.5762L135.032 29.5762L135.032 23.7052L117.419 23.7052Z" fill="white"/>
<path d="M99.8065 0H93.9355V53.2521H99.8065V0Z" fill="white"/>
<path d="M111.548 0H105.677V17.7519H111.548V0Z" fill="white"/>
<path d="M93.9355 47.381L93.9355 53.252L111.548 53.252L111.548 47.381L93.9355 47.381Z" fill="white"/>
<path d="M93.9355 0.000125408L93.9355 5.87109L111.548 5.87109L111.548 0.000125408L93.9355 0.000125408Z" fill="white"/>
<path d="M111.548 35.5005H105.677V53.2524H111.548V35.5005Z" fill="white"/>
<path d="M111.548 23.7568H105.677V29.6016H111.548V23.7568Z" fill="#EB3305"/>
<path d="M170.258 0H164.387V53.2521H170.258V0Z" fill="white"/>
<path d="M182 0H176.129V17.7519H182V0Z" fill="white"/>
<path d="M164.386 47.381L164.386 53.252L181.999 53.252L181.999 47.381L164.386 47.381Z" fill="white"/>
<path d="M164.386 0.000125408L164.386 5.87109L181.999 5.87109L181.999 0.000125408L164.386 0.000125408Z" fill="white"/>
<path d="M182 35.5005H176.129V53.2524H182V35.5005Z" fill="white"/>
<path d="M182 23.7568H176.129V29.6016H182V23.7568Z" fill="#EB3305"/>
<path d="M146.774 0H140.903V53.2521H146.774V0Z" fill="white"/>
<path d="M158.516 0H152.645V53.2589H158.516V0Z" fill="white"/>
<path d="M140.904 0.000125408L140.904 5.87109L158.517 5.87109L158.517 0.000125408L140.904 0.000125408Z" fill="white"/>
<path d="M140.904 47.3878L140.904 53.2588L158.517 53.2588L158.517 47.3878L140.904 47.3878Z" fill="white"/>
</svg>
