<svg width="182" height="58" viewBox="0 0 182 58" fill="none" xmlns="http://www.w3.org/2000/svg">
<path d="M130.322 18.4126V57.7745H118.967C120.908 43.8856 120.908 30.7646 118.967 18.4126H130.322Z" fill="white"/>
<path d="M45.0001 57.7745L54.1836 18.4126H69.8196L79.0032 57.7745H66.996L62.0011 21.0794C56.5559 31.997 53.7896 47.2812 57.0063 57.7745H44.9991H44.998H45.0001Z" fill="white"/>
<path d="M20.8983 34.1528C23.8566 27.4622 26.6038 18.3972 35.324 18.3972H41.9996V57.7722H29.4305L35.715 20.5383C26.9878 23.4876 27.984 57.7722 20.9455 57.7722C13.906 57.7722 14.6358 23.4816 6.28456 20.4971L12.5691 57.7722H0V18.3972H6.9289C15.448 18.3972 17.948 27.6039 20.8983 34.1528Z" fill="white"/>
<path d="M81.9317 57.7688V18.43L99.166 18.429C99.166 18.429 110.724 17.8148 110.724 26.5541C110.724 30.5357 106.33 32.1622 99.9289 35.217C113.962 40.1626 115.666 57.7678 115.666 57.7678L101.559 57.7688C104.179 43.518 95.7101 41.1326 95.7101 41.1326C93.7137 40.5948 93.2785 38.4166 94.538 36.9268C97.0098 33.7594 102.823 31.2213 102.823 29.0229C102.823 26.5511 99.2313 24.4512 95.888 24.4512L92.9809 24.4502V57.7658H81.9297V57.7698L81.9317 57.7688Z" fill="white"/>
<path d="M134.976 57.769V18.4302L146.027 18.4292C146.027 31.5411 146.027 44.6531 146.027 57.765H134.976V57.769ZM160.758 18.9177C162.356 17.7929 165.521 26.4296 162.482 29.7931C160.732 31.7301 157.314 33.1454 152.973 35.2162C167.006 40.1618 168.711 57.767 168.711 57.767L154.604 57.768C157.223 43.5172 148.754 41.1318 148.754 41.1318C146.758 40.595 146.323 38.4157 147.582 36.926C150.054 33.7586 155.867 31.2205 155.867 29.0221C155.867 27.3353 154.194 25.8205 152.068 25.0294L160.756 18.9167L160.758 18.9177Z" fill="white"/>
<path d="M140.646 11.0874C140.386 11.4925 140.28 11.8625 140.329 12.1962C140.378 12.5299 140.402 12.6968 140.402 12.6968L139.957 12.4123L139.416 13.2567L142.777 15.4118L143.319 14.5675L141.477 13.3874C141.267 13.2527 141.121 13.0325 141.039 12.7259C140.957 12.4173 140.997 12.1369 141.16 11.8826C141.322 11.6282 141.562 11.4734 141.876 11.4202C142.189 11.3669 142.45 11.4081 142.66 11.5428L144.502 12.7229L145.044 11.8785L142.926 10.5205C142.598 10.3104 142.2 10.2541 141.732 10.3496C141.263 10.4451 140.901 10.6914 140.646 11.0895V11.0874ZM148.022 9.06597L148.781 8.40856L146.166 5.39093L145.408 6.04834L145.79 6.48962C145.407 6.42931 145.083 6.45645 144.821 6.57004C144.557 6.68363 144.334 6.81833 144.152 6.97614C143.78 7.29882 143.568 7.74915 143.513 8.33016C143.457 8.90916 143.627 9.42785 144.022 9.8832C144.416 10.3386 144.905 10.5798 145.487 10.609C146.07 10.6371 146.546 10.4974 146.916 10.1888C147.111 10.032 147.281 9.81787 147.426 9.54646C147.571 9.27304 147.648 8.97249 147.658 8.64579L148.022 9.06597ZM144.798 9.2459C144.567 8.97852 144.465 8.66891 144.491 8.31609C144.518 7.96326 144.663 7.67275 144.927 7.44357C145.191 7.21438 145.5 7.11185 145.853 7.13597C146.205 7.1601 146.497 7.30585 146.729 7.57324C146.967 7.84766 147.072 8.16128 147.046 8.51311C147.019 8.86593 146.874 9.15644 146.61 9.38563C146.345 9.61481 146.037 9.71735 145.684 9.69322C145.332 9.6691 145.037 9.52032 144.798 9.2459ZM150.254 7.61445L148.335 4.27716L147.465 4.77775L149.384 8.11504L150.254 7.61445ZM147.913 3.54235L147.483 2.79548L146.614 3.29608L147.043 4.04295L147.913 3.54235ZM149.418 1.82345L148.504 2.23659L150.793 7.30083L151.708 6.88769L149.418 1.82345ZM156.004 5.00292C156.237 5.23613 156.499 5.39194 156.794 5.47235C157.088 5.55277 157.359 5.5779 157.609 5.54975C158.088 5.50452 158.526 5.26427 158.92 4.83002C159.314 4.39577 159.489 3.8791 159.442 3.27798C159.396 2.67687 159.148 2.19135 158.697 1.82244C158.246 1.45253 157.777 1.28566 157.287 1.32285C157.046 1.34095 156.795 1.41131 156.529 1.53395C156.265 1.65658 156.019 1.87471 155.791 2.18934L155.625 0L154.624 0.0763958L155.047 5.61811L156.047 5.54171L156.005 5.00091L156.004 5.00292ZM157.265 4.82399C156.915 4.85113 156.606 4.74559 156.339 4.51137C156.073 4.27615 155.926 3.97258 155.898 3.60367C155.871 3.2428 155.97 2.92616 156.197 2.65274C156.426 2.37933 156.715 2.23056 157.065 2.20342C157.425 2.17628 157.738 2.27981 158.005 2.51503C158.271 2.75025 158.418 3.0488 158.445 3.40967C158.473 3.77858 158.374 4.10024 158.147 4.37366C157.918 4.64507 157.625 4.79685 157.265 4.82399ZM163.43 5.91766L164.418 6.09458L165.12 2.16421L164.132 1.9873L164.029 2.56228C163.835 2.22654 163.61 1.99232 163.357 1.85863C163.102 1.72494 162.858 1.63748 162.621 1.59426C162.136 1.50781 161.653 1.62643 161.165 1.9491C160.68 2.27076 160.384 2.72914 160.278 3.32221C160.172 3.91528 160.292 4.44603 160.634 4.91748C160.979 5.38892 161.388 5.67138 161.861 5.76386C162.105 5.81714 162.378 5.81412 162.68 5.75582C162.984 5.69651 163.265 5.56785 163.526 5.36982L163.429 5.91766H163.43ZM161.262 3.52426C161.324 3.17646 161.501 2.90204 161.79 2.70099C162.082 2.49995 162.399 2.43059 162.743 2.49191C163.088 2.55323 163.362 2.72914 163.565 3.01864C163.768 3.30814 163.838 3.62679 163.776 3.97459C163.712 4.33144 163.534 4.61089 163.244 4.81193C162.952 5.01297 162.636 5.08233 162.291 5.02101C161.946 4.9597 161.673 4.78378 161.47 4.49428C161.267 4.20478 161.197 3.88211 161.261 3.52426H161.262ZM167.335 3.73937L167.57 3.21968L166.656 2.80654L165.011 6.44439L165.926 6.85753L166.872 4.76569C166.903 4.69734 166.997 4.58777 167.157 4.43699C167.318 4.28621 167.531 4.19875 167.795 4.17563C168.018 4.15452 168.217 4.19071 168.393 4.28621C168.569 4.37969 168.657 4.42794 168.657 4.42794L168.961 3.75646C168.961 3.75646 168.882 3.7052 168.724 3.60468C168.567 3.50214 168.351 3.46093 168.078 3.47902C167.867 3.49611 167.699 3.53733 167.573 3.60267C167.448 3.668 167.368 3.71424 167.336 3.74038L167.335 3.73937ZM172.423 11.6956L173.115 12.4214L176.005 9.66608L175.313 8.94032L174.89 9.34341C174.933 8.95741 174.889 8.63574 174.764 8.37841C174.637 8.12007 174.492 7.90496 174.326 7.73005C173.987 7.37421 173.526 7.18322 172.943 7.15608C172.362 7.12894 171.852 7.32294 171.416 7.7391C170.98 8.15525 170.763 8.65384 170.762 9.23686C170.762 9.82088 170.924 10.2903 171.25 10.6441C171.416 10.8321 171.638 10.9909 171.916 11.1226C172.195 11.2543 172.499 11.3166 172.827 11.3116L172.424 11.6956H172.423ZM172.089 8.48396C172.345 8.23969 172.65 8.12309 173.003 8.13213C173.356 8.14218 173.654 8.27387 173.895 8.52718C174.136 8.78049 174.254 9.08406 174.247 9.4379C174.239 9.79073 174.108 10.0903 173.852 10.3335C173.59 10.5838 173.281 10.7045 172.928 10.6954C172.574 10.6854 172.277 10.5537 172.036 10.3004C171.794 10.0471 171.677 9.74449 171.684 9.39065C171.692 9.03783 171.826 8.73526 172.089 8.48496V8.48396ZM178.324 13.2919C178.105 12.8636 177.839 12.5862 177.525 12.4606C177.212 12.3339 177.057 12.2716 177.057 12.2716L177.526 12.0313L177.069 11.1387L173.515 12.9581L173.973 13.8518L175.92 12.8546C176.142 12.741 176.405 12.7259 176.712 12.8084C177.019 12.8918 177.243 13.0687 177.38 13.3381C177.518 13.6075 177.531 13.891 177.419 14.1895C177.308 14.4871 177.141 14.6921 176.919 14.8057L174.972 15.8029L175.429 16.6965L177.669 15.5496C178.016 15.3726 178.264 15.057 178.418 14.6037C178.57 14.1503 178.54 13.7141 178.325 13.2929L178.324 13.2919ZM176.352 20.6982L176.529 21.6864L182 20.7093L181.823 19.7212L179.703 20.1001C179.952 19.8016 180.094 19.5101 180.133 19.2256C180.172 18.9401 180.17 18.6808 180.127 18.4436C180.041 17.959 179.763 17.5459 179.291 17.2011C178.822 16.8573 178.289 16.7377 177.696 16.8443C177.103 16.9498 176.646 17.2464 176.323 17.7319C176 18.2184 175.876 18.6999 175.953 19.1753C175.987 19.4236 176.085 19.6779 176.244 19.9413C176.405 20.2057 176.623 20.4258 176.9 20.6017L176.352 20.6992V20.6982ZM177.817 17.8414C178.173 17.7781 178.499 17.8475 178.795 18.0485C179.09 18.2516 179.268 18.524 179.329 18.8688C179.391 19.2135 179.318 19.5312 179.112 19.8237C178.905 20.1152 178.624 20.2931 178.268 20.3565C177.904 20.4218 177.573 20.3524 177.278 20.1514C176.984 19.9484 176.804 19.6759 176.743 19.3312C176.682 18.9864 176.755 18.6687 176.96 18.3762C177.167 18.0847 177.454 17.9058 177.817 17.8414ZM179.278 30.7563C179.39 30.3643 179.377 30.0447 179.239 29.7984C179.101 29.5521 179.033 29.4295 179.033 29.4295C179.033 29.4295 179.156 29.3581 179.404 29.2184C179.651 29.0766 179.823 28.8354 179.919 28.4966C180.028 28.1137 180.02 27.795 179.895 27.5437C179.771 27.2914 179.709 27.1657 179.709 27.1657L180.123 27.2834L180.398 26.3184L176.557 25.2277L176.283 26.1927L178.725 26.8863C178.875 26.9285 179.01 27.0411 179.128 27.224C179.248 27.407 179.273 27.6191 179.205 27.8583C179.134 28.1076 179.001 28.2785 178.803 28.372C178.605 28.4655 178.432 28.4896 178.282 28.4474L175.839 27.7538L175.596 28.6092L178.039 29.3028C178.162 29.338 178.292 29.4415 178.428 29.6124C178.565 29.7843 178.598 29.9974 178.525 30.2517C178.47 30.4457 178.353 30.5975 178.175 30.7071C177.996 30.8167 177.809 30.8438 177.616 30.7895L175.174 30.0959L174.899 31.0609L177.507 31.8008C177.872 31.9043 178.23 31.8571 178.58 31.658C178.931 31.458 179.162 31.1584 179.276 30.7574L179.278 30.7563ZM176.053 32.7034C175.57 32.3597 175.037 32.235 174.456 32.3345C173.874 32.432 173.415 32.7185 173.076 33.194C172.732 33.6775 172.61 34.2102 172.708 34.7923C172.806 35.3733 173.098 35.8367 173.582 36.1805C174.057 36.5182 174.587 36.6388 175.168 36.5413C175.75 36.4428 176.213 36.1523 176.557 35.6688C176.895 35.1933 177.015 34.6646 176.916 34.0826C176.818 33.5006 176.53 33.0412 176.054 32.7034H176.053ZM175.854 35.1702C175.65 35.4577 175.374 35.6336 175.024 35.6969C174.674 35.7613 174.358 35.6909 174.073 35.4889C173.789 35.2868 173.617 35.0084 173.558 34.6545C173.5 34.3007 173.573 33.9801 173.778 33.6926C173.977 33.4131 174.252 33.2422 174.605 33.1819C174.959 33.1206 175.278 33.191 175.563 33.393C175.847 33.5951 176.016 33.8725 176.07 34.2243C176.126 34.5751 176.052 34.8898 175.854 35.1692V35.1702ZM173.026 38.593L173.4 39.0242L174.159 38.3668L171.544 35.3491L170.785 36.0065L172.288 37.7415C172.337 37.7978 172.396 37.9305 172.467 38.1386C172.536 38.3477 172.527 38.5779 172.437 38.8272C172.362 39.0393 172.246 39.2041 172.086 39.3237C171.927 39.4444 171.847 39.5047 171.847 39.5047L172.329 40.0616C172.329 40.0616 172.408 40.0113 172.566 39.9108C172.726 39.8103 172.853 39.6323 172.951 39.377C173.025 39.179 173.058 39.0091 173.051 38.8674C173.044 38.7256 173.036 38.6342 173.026 38.594V38.593ZM169.846 39.9098C169.866 40.149 169.823 40.3852 169.717 40.6194C169.611 40.8537 169.433 41.0426 169.184 41.1854C168.952 41.3191 168.7 41.3844 168.43 41.3804C168.16 41.3764 167.933 41.2879 167.749 41.115L169.846 39.9098ZM166.537 40.8195C166.88 41.5824 167.371 42.0207 168.013 42.1323C168.654 42.2439 169.188 42.1765 169.613 41.9323C170.127 41.6367 170.461 41.2035 170.614 40.6345C170.769 40.0656 170.7 39.5268 170.408 39.0202C170.113 38.5065 169.679 38.1708 169.109 38.018C168.54 37.8632 167.999 37.9345 167.484 38.2301C167.058 38.4743 166.763 38.795 166.599 39.189C166.437 39.5841 166.393 40.0053 166.47 40.4556L167.277 39.9912C167.277 39.8605 167.325 39.6916 167.42 39.4856C167.515 39.2805 167.68 39.1106 167.912 38.9769C168.21 38.8061 168.497 38.7447 168.777 38.793C169.056 38.8412 169.285 38.9558 169.462 39.1358L166.535 40.8195H166.537Z" fill="white"/>
</svg>
