<svg width="764" height="77" viewBox="0 0 764 77" fill="none" xmlns="http://www.w3.org/2000/svg">
<mask id="path-1-outside-1_698_10015" maskUnits="userSpaceOnUse" x="0" y="0" width="764" height="77" fill="black">
<rect fill="white" width="764" height="77"/>
<path d="M41.168 18.224H26.48V73.04H16.688V18.224H2V9.008H41.168V18.224ZM46.1795 73.04V32.624H55.5875V36.272C56.8035 34.864 58.1155 33.744 59.5235 32.912C61.0595 32.016 62.9795 31.568 65.2835 31.568C68.0355 31.568 70.4995 32.208 72.6755 33.488L68.8355 42.032C67.2995 41.072 65.6995 40.592 64.0355 40.592C61.5395 40.592 59.5875 41.328 58.1795 42.8C56.4515 44.656 55.5875 47.76 55.5875 52.112V73.04H46.1795ZM103.375 59.408L111.246 63.824C109.454 67.024 107.183 69.488 104.431 71.216C101.295 73.264 97.3265 74.288 92.5265 74.288C86.8945 74.288 82.3505 72.56 78.8945 69.104C74.9265 65.136 72.9425 59.984 72.9425 53.648C72.9425 46.992 75.0865 41.456 79.3745 37.04C83.0225 33.392 87.5345 31.568 92.9105 31.568C98.1585 31.568 102.478 33.328 105.87 36.848C109.646 40.752 111.535 46.448 111.535 53.936V55.088H82.5425C82.7985 58.48 83.9505 61.2 85.9985 63.248C87.7265 64.976 90.1265 65.84 93.1985 65.84C95.6945 65.84 97.8385 65.168 99.6305 63.824C101.103 62.672 102.351 61.2 103.375 59.408ZM83.2145 47.408H101.935C101.551 45.168 100.59 43.344 99.0545 41.936C97.3905 40.4 95.2785 39.632 92.7185 39.632C90.0305 39.632 87.8225 40.496 86.0945 42.224C84.6865 43.504 83.7265 45.232 83.2145 47.408ZM150.935 37.328V32.624H160.343V73.04H150.935V68.816C147.799 72.464 143.767 74.288 138.839 74.288C132.887 74.288 128.119 72.176 124.535 67.952C121.015 63.728 119.255 58.672 119.255 52.784C119.255 46.384 121.143 41.264 124.919 37.424C128.759 33.52 133.431 31.568 138.935 31.568C143.991 31.568 147.991 33.488 150.935 37.328ZM140.087 40.016C136.759 40.016 134.039 41.264 131.927 43.76C129.879 46.256 128.855 49.328 128.855 52.976C128.855 56.56 129.879 59.6 131.927 62.096C134.039 64.592 136.759 65.84 140.087 65.84C143.287 65.84 145.975 64.72 148.151 62.48C150.391 60.24 151.511 57.104 151.511 53.072C151.511 48.912 150.391 45.712 148.151 43.472C145.975 41.168 143.287 40.016 140.087 40.016ZM189.169 41.264H181.969V73.04H172.561V41.264H168.625V32.624H172.561V17.84H181.969V32.624H189.169V41.264ZM233.001 73.04V45.392L211.977 9.008H223.113L237.898 34.64L252.682 9.008H263.818L242.794 45.392V73.04H233.001ZM269.024 37.616C273.184 33.584 278.336 31.568 284.48 31.568C290.624 31.568 295.744 33.584 299.84 37.616C304 41.584 306.08 46.672 306.08 52.88C306.08 59.024 304 64.144 299.84 68.24C295.744 72.272 290.624 74.288 284.48 74.288C278.336 74.288 273.184 72.272 269.024 68.24C264.928 64.144 262.88 59.024 262.88 52.88C262.88 46.672 264.928 41.584 269.024 37.616ZM275.744 62.384C277.92 64.688 280.832 65.84 284.48 65.84C288.128 65.84 291.04 64.688 293.216 62.384C295.392 60.016 296.48 56.88 296.48 52.976C296.48 48.688 295.296 45.456 292.928 43.28C290.624 41.104 287.808 40.016 284.48 40.016C281.152 40.016 278.304 41.104 275.936 43.28C273.632 45.456 272.48 48.688 272.48 52.976C272.48 56.88 273.568 60.016 275.744 62.384ZM315.898 32.624H325.306V55.76C325.306 59.152 325.882 61.584 327.034 63.056C328.442 64.912 330.49 65.84 333.178 65.84C335.866 65.84 337.914 64.912 339.322 63.056C340.474 61.584 341.05 59.152 341.05 55.76V32.624H350.458V56.048C350.458 62 349.018 66.416 346.138 69.296C342.81 72.624 338.426 74.288 332.986 74.288C327.738 74.288 323.482 72.624 320.218 69.296C317.338 66.416 315.898 62 315.898 56.048V32.624ZM362.398 73.04V32.624H371.806V36.272C373.022 34.864 374.334 33.744 375.742 32.912C377.278 32.016 379.198 31.568 381.502 31.568C384.254 31.568 386.718 32.208 388.894 33.488L385.054 42.032C383.518 41.072 381.918 40.592 380.254 40.592C377.758 40.592 375.806 41.328 374.398 42.8C372.67 44.656 371.806 47.76 371.806 52.112V73.04H362.398ZM417.07 38.672L410.062 43.28C408.654 40.976 406.734 39.824 404.302 39.824C403.086 39.824 402.126 40.176 401.422 40.88C400.846 41.456 400.558 42.16 400.558 42.992C400.558 43.952 401.006 44.72 401.902 45.296C402.094 45.424 402.286 45.552 402.478 45.68C402.67 45.744 403.022 45.904 403.534 46.16C404.046 46.416 404.558 46.672 405.07 46.928L409.87 49.328C412.558 50.672 414.446 51.92 415.534 53.072C417.518 55.056 418.51 57.552 418.51 60.56C418.51 64.144 417.326 67.216 414.958 69.776C412.206 72.784 408.43 74.288 403.63 74.288C400.046 74.288 397.134 73.424 394.894 71.696C392.462 69.904 390.734 67.44 389.71 64.304L397.39 60.656C398.03 62.512 398.766 63.792 399.598 64.496C400.622 65.52 401.998 66.032 403.726 66.032C405.39 66.032 406.67 65.584 407.566 64.688C408.462 63.792 408.91 62.736 408.91 61.52C408.91 60.368 408.494 59.344 407.662 58.448C406.766 57.552 405.422 56.72 403.63 55.952L400.174 54.32C397.486 53.04 395.63 51.888 394.606 50.864C392.686 49.008 391.726 46.736 391.726 44.048C391.726 40.656 392.846 37.776 395.086 35.408C397.518 32.848 400.814 31.568 404.974 31.568C407.854 31.568 410.35 32.272 412.462 33.68C414.382 34.896 415.918 36.56 417.07 38.672ZM455.312 59.408L463.184 63.824C461.392 67.024 459.12 69.488 456.368 71.216C453.232 73.264 449.264 74.288 444.464 74.288C438.832 74.288 434.288 72.56 430.832 69.104C426.864 65.136 424.88 59.984 424.88 53.648C424.88 46.992 427.024 41.456 431.312 37.04C434.96 33.392 439.472 31.568 444.848 31.568C450.096 31.568 454.416 33.328 457.808 36.848C461.584 40.752 463.472 46.448 463.472 53.936V55.088H434.48C434.736 58.48 435.888 61.2 437.936 63.248C439.664 64.976 442.064 65.84 445.136 65.84C447.632 65.84 449.776 65.168 451.568 63.824C453.04 62.672 454.288 61.2 455.312 59.408ZM435.152 47.408H453.872C453.488 45.168 452.528 43.344 450.992 41.936C449.328 40.4 447.216 39.632 444.656 39.632C441.968 39.632 439.76 40.496 438.032 42.224C436.624 43.504 435.664 45.232 435.152 47.408ZM473.305 3.056H482.712V73.04H473.305V3.056ZM515.13 41.264H504.954V73.04H495.546V41.264H491.514V32.624H495.546V18.608C495.546 12.976 496.858 8.752 499.482 5.936C501.978 3.312 505.178 2 509.082 2C511.322 2 513.338 2.384 515.13 3.152V12.464C513.53 11.504 512.026 11.024 510.618 11.024C508.826 11.024 507.45 11.536 506.49 12.56C505.466 13.584 504.954 15.184 504.954 17.36V32.624H515.13V41.264ZM544.595 9.008H554.291C558.643 9.008 562.163 9.36 564.851 10.064C567.539 10.768 569.907 12.08 571.955 14C575.347 17.2 577.043 21.424 577.043 26.672C577.043 29.68 576.403 32.208 575.123 34.256C573.971 36.24 572.371 37.712 570.323 38.672C573.651 39.504 576.403 41.04 578.579 43.28C581.395 46.224 582.803 50.224 582.803 55.28C582.803 59.952 581.395 63.792 578.579 66.8C574.611 70.96 568.627 73.04 560.627 73.04H544.595V9.008ZM554.387 18.224V36.56H557.363C560.947 36.56 563.603 35.728 565.331 34.064C566.995 32.464 567.827 30.032 567.827 26.768C567.827 24.144 567.059 22.096 565.523 20.624C563.859 19.024 561.267 18.224 557.747 18.224H554.387ZM554.387 44.624V63.824H560.339C564.755 63.824 567.987 62.992 570.035 61.328C572.147 59.664 573.203 57.296 573.203 54.224C573.203 51.472 572.339 49.232 570.611 47.504C568.627 45.584 565.267 44.624 560.531 44.624H554.387ZM621.718 59.408L629.59 63.824C627.798 67.024 625.526 69.488 622.774 71.216C619.638 73.264 615.67 74.288 610.87 74.288C605.238 74.288 600.694 72.56 597.238 69.104C593.27 65.136 591.286 59.984 591.286 53.648C591.286 46.992 593.43 41.456 597.718 37.04C601.366 33.392 605.878 31.568 611.254 31.568C616.502 31.568 620.822 33.328 624.214 36.848C627.99 40.752 629.878 46.448 629.878 53.936V55.088H600.886C601.142 58.48 602.294 61.2 604.342 63.248C606.07 64.976 608.47 65.84 611.542 65.84C614.038 65.84 616.182 65.168 617.974 63.824C619.446 62.672 620.694 61.2 621.718 59.408ZM601.558 47.408H620.278C619.894 45.168 618.934 43.344 617.398 41.936C615.734 40.4 613.622 39.632 611.062 39.632C608.374 39.632 606.166 40.496 604.438 42.224C603.03 43.504 602.07 45.232 601.558 47.408ZM656.607 41.264H649.407V73.04H639.999V41.264H636.063V32.624H639.999V17.84H649.407V32.624H656.607V41.264ZM681.732 41.264H674.532V73.04H665.124V41.264H661.188V32.624H665.124V17.84H674.532V32.624H681.732V41.264ZM716.406 59.408L724.278 63.824C722.486 67.024 720.214 69.488 717.462 71.216C714.326 73.264 710.358 74.288 705.558 74.288C699.926 74.288 695.382 72.56 691.926 69.104C687.958 65.136 685.974 59.984 685.974 53.648C685.974 46.992 688.118 41.456 692.406 37.04C696.054 33.392 700.566 31.568 705.942 31.568C711.19 31.568 715.51 33.328 718.902 36.848C722.678 40.752 724.566 46.448 724.566 53.936V55.088H695.574C695.83 58.48 696.982 61.2 699.03 63.248C700.758 64.976 703.158 65.84 706.23 65.84C708.726 65.84 710.87 65.168 712.662 63.824C714.134 62.672 715.382 61.2 716.406 59.408ZM696.246 47.408H714.966C714.582 45.168 713.622 43.344 712.086 41.936C710.422 40.4 708.31 39.632 705.75 39.632C703.062 39.632 700.854 40.496 699.126 42.224C697.718 43.504 696.758 45.232 696.246 47.408ZM734.398 73.04V32.624H743.806V36.272C745.022 34.864 746.334 33.744 747.742 32.912C749.278 32.016 751.198 31.568 753.502 31.568C756.254 31.568 758.718 32.208 760.894 33.488L757.054 42.032C755.518 41.072 753.918 40.592 752.254 40.592C749.758 40.592 747.806 41.328 746.398 42.8C744.67 44.656 743.806 47.76 743.806 52.112V73.04H734.398Z"/>
</mask>
<path d="M41.168 18.224H26.48V73.04H16.688V18.224H2V9.008H41.168V18.224ZM46.1795 73.04V32.624H55.5875V36.272C56.8035 34.864 58.1155 33.744 59.5235 32.912C61.0595 32.016 62.9795 31.568 65.2835 31.568C68.0355 31.568 70.4995 32.208 72.6755 33.488L68.8355 42.032C67.2995 41.072 65.6995 40.592 64.0355 40.592C61.5395 40.592 59.5875 41.328 58.1795 42.8C56.4515 44.656 55.5875 47.76 55.5875 52.112V73.04H46.1795ZM103.375 59.408L111.246 63.824C109.454 67.024 107.183 69.488 104.431 71.216C101.295 73.264 97.3265 74.288 92.5265 74.288C86.8945 74.288 82.3505 72.56 78.8945 69.104C74.9265 65.136 72.9425 59.984 72.9425 53.648C72.9425 46.992 75.0865 41.456 79.3745 37.04C83.0225 33.392 87.5345 31.568 92.9105 31.568C98.1585 31.568 102.478 33.328 105.87 36.848C109.646 40.752 111.535 46.448 111.535 53.936V55.088H82.5425C82.7985 58.48 83.9505 61.2 85.9985 63.248C87.7265 64.976 90.1265 65.84 93.1985 65.84C95.6945 65.84 97.8385 65.168 99.6305 63.824C101.103 62.672 102.351 61.2 103.375 59.408ZM83.2145 47.408H101.935C101.551 45.168 100.59 43.344 99.0545 41.936C97.3905 40.4 95.2785 39.632 92.7185 39.632C90.0305 39.632 87.8225 40.496 86.0945 42.224C84.6865 43.504 83.7265 45.232 83.2145 47.408ZM150.935 37.328V32.624H160.343V73.04H150.935V68.816C147.799 72.464 143.767 74.288 138.839 74.288C132.887 74.288 128.119 72.176 124.535 67.952C121.015 63.728 119.255 58.672 119.255 52.784C119.255 46.384 121.143 41.264 124.919 37.424C128.759 33.52 133.431 31.568 138.935 31.568C143.991 31.568 147.991 33.488 150.935 37.328ZM140.087 40.016C136.759 40.016 134.039 41.264 131.927 43.76C129.879 46.256 128.855 49.328 128.855 52.976C128.855 56.56 129.879 59.6 131.927 62.096C134.039 64.592 136.759 65.84 140.087 65.84C143.287 65.84 145.975 64.72 148.151 62.48C150.391 60.24 151.511 57.104 151.511 53.072C151.511 48.912 150.391 45.712 148.151 43.472C145.975 41.168 143.287 40.016 140.087 40.016ZM189.169 41.264H181.969V73.04H172.561V41.264H168.625V32.624H172.561V17.84H181.969V32.624H189.169V41.264ZM233.001 73.04V45.392L211.977 9.008H223.113L237.898 34.64L252.682 9.008H263.818L242.794 45.392V73.04H233.001ZM269.024 37.616C273.184 33.584 278.336 31.568 284.48 31.568C290.624 31.568 295.744 33.584 299.84 37.616C304 41.584 306.08 46.672 306.08 52.88C306.08 59.024 304 64.144 299.84 68.24C295.744 72.272 290.624 74.288 284.48 74.288C278.336 74.288 273.184 72.272 269.024 68.24C264.928 64.144 262.88 59.024 262.88 52.88C262.88 46.672 264.928 41.584 269.024 37.616ZM275.744 62.384C277.92 64.688 280.832 65.84 284.48 65.84C288.128 65.84 291.04 64.688 293.216 62.384C295.392 60.016 296.48 56.88 296.48 52.976C296.48 48.688 295.296 45.456 292.928 43.28C290.624 41.104 287.808 40.016 284.48 40.016C281.152 40.016 278.304 41.104 275.936 43.28C273.632 45.456 272.48 48.688 272.48 52.976C272.48 56.88 273.568 60.016 275.744 62.384ZM315.898 32.624H325.306V55.76C325.306 59.152 325.882 61.584 327.034 63.056C328.442 64.912 330.49 65.84 333.178 65.84C335.866 65.84 337.914 64.912 339.322 63.056C340.474 61.584 341.05 59.152 341.05 55.76V32.624H350.458V56.048C350.458 62 349.018 66.416 346.138 69.296C342.81 72.624 338.426 74.288 332.986 74.288C327.738 74.288 323.482 72.624 320.218 69.296C317.338 66.416 315.898 62 315.898 56.048V32.624ZM362.398 73.04V32.624H371.806V36.272C373.022 34.864 374.334 33.744 375.742 32.912C377.278 32.016 379.198 31.568 381.502 31.568C384.254 31.568 386.718 32.208 388.894 33.488L385.054 42.032C383.518 41.072 381.918 40.592 380.254 40.592C377.758 40.592 375.806 41.328 374.398 42.8C372.67 44.656 371.806 47.76 371.806 52.112V73.04H362.398ZM417.07 38.672L410.062 43.28C408.654 40.976 406.734 39.824 404.302 39.824C403.086 39.824 402.126 40.176 401.422 40.88C400.846 41.456 400.558 42.16 400.558 42.992C400.558 43.952 401.006 44.72 401.902 45.296C402.094 45.424 402.286 45.552 402.478 45.68C402.67 45.744 403.022 45.904 403.534 46.16C404.046 46.416 404.558 46.672 405.07 46.928L409.87 49.328C412.558 50.672 414.446 51.92 415.534 53.072C417.518 55.056 418.51 57.552 418.51 60.56C418.51 64.144 417.326 67.216 414.958 69.776C412.206 72.784 408.43 74.288 403.63 74.288C400.046 74.288 397.134 73.424 394.894 71.696C392.462 69.904 390.734 67.44 389.71 64.304L397.39 60.656C398.03 62.512 398.766 63.792 399.598 64.496C400.622 65.52 401.998 66.032 403.726 66.032C405.39 66.032 406.67 65.584 407.566 64.688C408.462 63.792 408.91 62.736 408.91 61.52C408.91 60.368 408.494 59.344 407.662 58.448C406.766 57.552 405.422 56.72 403.63 55.952L400.174 54.32C397.486 53.04 395.63 51.888 394.606 50.864C392.686 49.008 391.726 46.736 391.726 44.048C391.726 40.656 392.846 37.776 395.086 35.408C397.518 32.848 400.814 31.568 404.974 31.568C407.854 31.568 410.35 32.272 412.462 33.68C414.382 34.896 415.918 36.56 417.07 38.672ZM455.312 59.408L463.184 63.824C461.392 67.024 459.12 69.488 456.368 71.216C453.232 73.264 449.264 74.288 444.464 74.288C438.832 74.288 434.288 72.56 430.832 69.104C426.864 65.136 424.88 59.984 424.88 53.648C424.88 46.992 427.024 41.456 431.312 37.04C434.96 33.392 439.472 31.568 444.848 31.568C450.096 31.568 454.416 33.328 457.808 36.848C461.584 40.752 463.472 46.448 463.472 53.936V55.088H434.48C434.736 58.48 435.888 61.2 437.936 63.248C439.664 64.976 442.064 65.84 445.136 65.84C447.632 65.84 449.776 65.168 451.568 63.824C453.04 62.672 454.288 61.2 455.312 59.408ZM435.152 47.408H453.872C453.488 45.168 452.528 43.344 450.992 41.936C449.328 40.4 447.216 39.632 444.656 39.632C441.968 39.632 439.76 40.496 438.032 42.224C436.624 43.504 435.664 45.232 435.152 47.408ZM473.305 3.056H482.712V73.04H473.305V3.056ZM515.13 41.264H504.954V73.04H495.546V41.264H491.514V32.624H495.546V18.608C495.546 12.976 496.858 8.752 499.482 5.936C501.978 3.312 505.178 2 509.082 2C511.322 2 513.338 2.384 515.13 3.152V12.464C513.53 11.504 512.026 11.024 510.618 11.024C508.826 11.024 507.45 11.536 506.49 12.56C505.466 13.584 504.954 15.184 504.954 17.36V32.624H515.13V41.264ZM544.595 9.008H554.291C558.643 9.008 562.163 9.36 564.851 10.064C567.539 10.768 569.907 12.08 571.955 14C575.347 17.2 577.043 21.424 577.043 26.672C577.043 29.68 576.403 32.208 575.123 34.256C573.971 36.24 572.371 37.712 570.323 38.672C573.651 39.504 576.403 41.04 578.579 43.28C581.395 46.224 582.803 50.224 582.803 55.28C582.803 59.952 581.395 63.792 578.579 66.8C574.611 70.96 568.627 73.04 560.627 73.04H544.595V9.008ZM554.387 18.224V36.56H557.363C560.947 36.56 563.603 35.728 565.331 34.064C566.995 32.464 567.827 30.032 567.827 26.768C567.827 24.144 567.059 22.096 565.523 20.624C563.859 19.024 561.267 18.224 557.747 18.224H554.387ZM554.387 44.624V63.824H560.339C564.755 63.824 567.987 62.992 570.035 61.328C572.147 59.664 573.203 57.296 573.203 54.224C573.203 51.472 572.339 49.232 570.611 47.504C568.627 45.584 565.267 44.624 560.531 44.624H554.387ZM621.718 59.408L629.59 63.824C627.798 67.024 625.526 69.488 622.774 71.216C619.638 73.264 615.67 74.288 610.87 74.288C605.238 74.288 600.694 72.56 597.238 69.104C593.27 65.136 591.286 59.984 591.286 53.648C591.286 46.992 593.43 41.456 597.718 37.04C601.366 33.392 605.878 31.568 611.254 31.568C616.502 31.568 620.822 33.328 624.214 36.848C627.99 40.752 629.878 46.448 629.878 53.936V55.088H600.886C601.142 58.48 602.294 61.2 604.342 63.248C606.07 64.976 608.47 65.84 611.542 65.84C614.038 65.84 616.182 65.168 617.974 63.824C619.446 62.672 620.694 61.2 621.718 59.408ZM601.558 47.408H620.278C619.894 45.168 618.934 43.344 617.398 41.936C615.734 40.4 613.622 39.632 611.062 39.632C608.374 39.632 606.166 40.496 604.438 42.224C603.03 43.504 602.07 45.232 601.558 47.408ZM656.607 41.264H649.407V73.04H639.999V41.264H636.063V32.624H639.999V17.84H649.407V32.624H656.607V41.264ZM681.732 41.264H674.532V73.04H665.124V41.264H661.188V32.624H665.124V17.84H674.532V32.624H681.732V41.264ZM716.406 59.408L724.278 63.824C722.486 67.024 720.214 69.488 717.462 71.216C714.326 73.264 710.358 74.288 705.558 74.288C699.926 74.288 695.382 72.56 691.926 69.104C687.958 65.136 685.974 59.984 685.974 53.648C685.974 46.992 688.118 41.456 692.406 37.04C696.054 33.392 700.566 31.568 705.942 31.568C711.19 31.568 715.51 33.328 718.902 36.848C722.678 40.752 724.566 46.448 724.566 53.936V55.088H695.574C695.83 58.48 696.982 61.2 699.03 63.248C700.758 64.976 703.158 65.84 706.23 65.84C708.726 65.84 710.87 65.168 712.662 63.824C714.134 62.672 715.382 61.2 716.406 59.408ZM696.246 47.408H714.966C714.582 45.168 713.622 43.344 712.086 41.936C710.422 40.4 708.31 39.632 705.75 39.632C703.062 39.632 700.854 40.496 699.126 42.224C697.718 43.504 696.758 45.232 696.246 47.408ZM734.398 73.04V32.624H743.806V36.272C745.022 34.864 746.334 33.744 747.742 32.912C749.278 32.016 751.198 31.568 753.502 31.568C756.254 31.568 758.718 32.208 760.894 33.488L757.054 42.032C755.518 41.072 753.918 40.592 752.254 40.592C749.758 40.592 747.806 41.328 746.398 42.8C744.67 44.656 743.806 47.76 743.806 52.112V73.04H734.398Z" stroke="white" stroke-width="4" mask="url(#path-1-outside-1_698_10015)"/>
</svg>
